Language: English
Genre:Crime | Drama | Thriller  http://www.imdb.com/title/tt0840361/
Source:EXTENDED.720p.Bluray.x264-CBGB
 
http://www.rapidhdd.com/images/346521vlcsnap-2010-12-04-13h41m49s202.png 
http://www.rapidhdd.com/images/886701vlcsnap-2010-12-04-13h41m17s135.png 
http://www.rapidhdd.com/images/583039vlcsnap-2010-12-04-13h38m49s217.png


General
Complete name :The.Town.EXTENDED.BRRip.720p.H264.Feel-Free
Format : MPEG-4
Format profile : Base Media
Codec ID : mp42
File size : 2.08 GiB
Duration : 2h 30mn
Overall bit rate : 1 980 Kbps
Video #1
Codec ID : avc1
Codec ID/Info : Advanced Video Coding
Duration : 2h 30mn
Bit rate mode : Variable
Bit rate : 1 498 Kbps
Width : 1 280 pixels
Height : 536 pixels
Display aspect ratio : 2.35:1
Frame rate mode : Constant
Frame rate : 23.976 fps
Resolution : 24 bits
Colorimetry : 4:2:0
Scan type : Progressive
Bits/(Pixel*Frame) : 0.091
Stream size : 1.58 GiB (76%)
Audio #2
ID : 2
Format : AAC
Format/Info : Advanced Audio Codec
Format version : Version 4
Format profile : LC
Format settings, SBR : No
Codec ID : 40
Duration : 2h 30mn
Bit rate mode : Constant
Bit rate : 477 Kbps
Nominal bit rate : 480 Kbps
Channel(s) : 6 channels
Channel positions : Front: L C R, Rear: L R, LFE
Sampling rate : 48.0 KHz
Resolution : 16 bits
Stream size : 514 MiB (24%)

Plot:
As he plans his next job, a longtime thief tries to balance his feelings for a bank manager connected to one of his earlier heists, as well as the FBI agent looking to bring him and his crew down

